<?xml version="1.0" encoding="utf-8"?>
<!-- Generator: Adobe Illustrator 12.0.0, SVG Export Plug-In . SVG Version: 6.00 Build 51448)  -->
<!DOCTYPE svg PUBLIC "-//W3C//DTD SVG 1.0//EN" "http://www.w3.org/TR/2001/REC-SVG-20010904/DTD/svg10.dtd" [
	<!ENTITY ns_svg "http://www.w3.org/2000/svg">
	<!ENTITY ns_xlink "http://www.w3.org/1999/xlink">
]>
<svg  version="1.0" id="svg2402" xmlns:svg="http://www.w3.org/2000/svg" xmlns="&ns_svg;" xmlns:xlink="&ns_xlink;"
	 width="200" height="200" viewBox="205.5 295.5 200 200" overflow="visible" enable-background="new 205.5 295.5 200 200"
	 xml:space="preserve">
<g>
	<polygon fill="#FFFFFF" points="363.529,370.031 363.529,420.808 355.228,420.808 355.228,380.854 355.086,380.854 
		344.748,420.808 337.435,420.808 327.105,380.854 326.965,380.854 326.965,420.808 318.663,420.808 318.663,370.031 
		332.221,370.031 341.025,403.357 341.166,403.357 349.942,370.031 	"/>
	<polygon fill="#FFFFFF" points="312.5,412.224 312.5,420.808 285.226,420.808 285.226,370.031 311.795,370.031 311.795,378.615 
		294.929,378.615 294.929,390.285 307.789,390.285 307.789,398.849 294.929,398.849 294.929,412.224 	"/>
	<rect x="205.5" y="295.5" fill="#F48412" width="200" height="200"/>
	<polygon fill="#FFFFFF" points="363.529,420.808 363.529,370.031 349.942,370.031 341.166,403.357 341.025,403.357 
		332.221,370.031 318.663,370.031 318.663,420.808 326.965,420.808 326.965,380.854 327.105,380.854 337.435,420.808 
		344.748,420.808 355.086,380.854 355.228,380.854 355.228,420.808 	"/>
	<polygon fill="#FFFFFF" points="312.5,420.808 312.5,412.224 294.929,412.224 294.929,398.849 307.789,398.849 307.789,390.285 
		294.929,390.285 294.929,378.615 311.795,378.615 311.795,370.031 285.226,370.031 285.226,420.808 	"/>
	<polygon fill="#F48412" points="279.799,420.808 267.574,370.031 255.127,370.031 242.539,420.808 251.889,420.808 
		254.632,410.115 268.058,410.115 270.519,420.808 	"/>
	<path fill="#FFFFFF" d="M267.574,370.031h-12.447l-12.588,50.776h9.351l2.743-10.692h13.426l2.461,10.692h9.28L267.574,370.031z
		 M256.388,401.531l4.781-20.536h0.142l4.71,20.536H256.388z"/>
</g>
</svg>
